<svg xmlns="http://www.w3.org/2000/svg" xmlns:xlink="http://www.w3.org/1999/xlink" version="1.1" id="Layer_1" x="0px" y="0px" width="420.5px" height="184px" viewBox="0 0 420.5 184" style="enable-background:new 0 0 420.5 184;" xml:space="preserve">
                            <style type="text/css">
                                .st0{fill:#131212;}
                            </style>
                                <path class="st0" d="M297.2,15.2c-0.9-0.3-0.9-1.4-2-1.1c-2.2-1.1-4.7-0.1-6.4,0.9c-0.3-1.1-1-1.6-1.1-2.8c-1.1-0.4-1.6-0.4-2.7-0.3  c-0.3-1.8-1.2-3.5-2.8-4.5c-2-0.1-0.6-3.4-2.6-3.7c-1.1-0.2-2.7-0.3-3.4,0.5c-1,1.6-2.6,3.7-3.3,5.8c-1.4-1.4-1-3.9-2.7-5.2  c-0.3-0.3-1.3-0.1-1.2-0.8c-1.2-0.5-2.7-1.1-3.9-0.6c0.1-2.5-2.5-2.6-4.5-2.4c-1-1.5-2.8,0.5-4.6,0.3c-0.5,1-0.9,1.3-1.4,2.4  l-1.7-0.1c-1.1,1.1-2.8,0.7-3.8,1.9c-0.5,0.5,0,1.4-0.6,1.7c-0.3,0.3-0.5,0.7-0.2,1c-0.1,0.3-0.4,1.2-0.9,1.4v0.3  c-0.2,0.1-0.5,0.5-0.7,0.1c0.1-1.3-0.6-3-1.2-3.9c-2-0.1-1.4-3.7-4.4-2.5c-1.3,0.3-1.9,1.7-2,2.8c-0.3,0.4-0.7,1-1.4,0.8  c-0.3,0.4-0.6,1.2-1.4,1.1c0,1.2-1.3,1.2-1,2.5c0.1,1.1-1.2,0.4-1.4,1.3c-1.5,0.1-1.6,2-2.4,3c-0.9,0.3-1.5-0.4-1.9-0.8  c-0.5-0.2-1.3-0.2-1.6-0.6c-2.2-0.3-3.8,0.3-5.2,1.2c-2.4,1-1.6,4.1-1.8,6.4c1.1,1,1.4,3,3.1,3.3c0.6,0.4,2.6-0.4,2,1.2  c-0.7-0.1-0.6,0.9-1.4,0.6c0,0.9-1.2,0.9-1.6,1.4c-0.3,1.4-0.3,3.2,0.9,3.8c0.7,0.7,2.2,1,3.3,0.6c1.1-1.7,1.2,1.2,2.5,0.8  c2.2-1,0.3,1.1,1.6,2c0.2,0.4,1-0.1,0.9,0.5c0.9-0.2,1-0.9,1.8-1.3c1,0.2,1.5-1.3,2.2-0.1c-0.1,0.1-0.1,0.2-0.3,0.1l-0.2,1.4  c0.3-0.9,1.8-0.1,2-0.9c1-0.1,2.2,0,2.9,0.5c-0.3,0.5-0.9,0.9-1.3,1.4c-0.5,1.4-0.5,3.5,0,4.9c0.9,0.9,1.9,0.8,2.6,1.9  c0.9,0.3,1.4,0.6,2.2,0.9c1.5-0.3,3-0.5,4.3-1.2c-0.1,0.5,0.8,0.7,0.5,1.2c2.4,1.4,6-1.4,8.2,0c2.2,1.5,1.7-2.2,3.1-2  c0.1,1.1,1,1.6,1.6,2.4c2.7-1,5.4,0.7,8.1-0.3c-0.2-1,1.3-0.6,1.2-1.6c0.5,1,2.3,0.7,2.8,1.6c2.2-0.1,3.2-1.7,5.4-2.4  c1.1-0.9,0.4-2.8,0.6-4.1c-0.5-0.9-1.2-1.4-1.9-2.1l0.8-0.6c1.3-0.1,3.1-1,4.3,0c0.1-0.5-0.3-1,0.3-1.2c2-0.5,2.9,1.2,4.3,1.8  c1.1,0.1,0.8-1.1,0.9-1.8c0-0.7,0.1-1.7-0.8-1.8c0.4-0.1,0.2-0.5,0.7-0.5c0.4,0.5,1,0.9,1.4,1.2c0.6,0.3,1.5,0.2,1.6-0.6  c0.5-0.4,1.2-0.1,1.4,0.3c1.9-0.2,3.3-1.2,4.1-2.8c-0.2-1.2-0.7-2.3-1.4-3.3c-0.4-0.5-1.2-0.3-1.1-1.1c-0.1-1,1.1-0.3,1.6-0.8v-0.3  c1.4-0.4,1.9-1.6,2.8-2.5C299.1,19.4,299.2,16.6,297.2,15.2z M287.4,13.6c-0.4,1.1,2.2,1.8,0.2,2.4c-0.6-0.4-1.4-1-1.9-0.2  c-0.4,0.2-0.5-0.3-0.7-0.5c0.1,0.9-0.7,0.3-0.9,0.9l-0.3-0.5c0.5-0.5,0.5-1.4,0.7-2.2C284.5,12.4,287.7,11.7,287.4,13.6z M267.9,4.2  c0,0.1-0.1,0.3,0.1,0.5h0.3c0.2,0.7,1.5,0.7,1.4,1.6c0.7,0.2,0.4,0.8,1,0.9c0.3,1,0.2,1.2-0.5,1.8c0.1-0.8-0.7-1-1.2-1.1  c-1.4,0.1-2.3-0.2-3.1-1l0.1-1.7c-0.3-0.3-0.7-0.1-1-0.1C264.9,3.3,267.1,4.2,267.9,4.2z M256.7,1.6c1.2,0.3,1.6-0.5,2.7-0.5  c0.4,1.4,2.6,0.5,3.9,0.8c1.2,0.4,0.9,1.6,1,2.5c-0.3-0.7-0.7-1.2-1.4-1.4c-1.4-0.3-1.8,2-3,0.9c-0.3,0.1-0.7-0.1-0.9,0.2v0.1  c-1-0.2-1.8-2.2-3-0.8h-0.3C255.7,2.6,256,2.1,256.7,1.6z M249.6,5.7c0.9-1.8,2.9,0.9,3-1.6c0.6,0.1,1.7-0.4,1.7,0.5  c0.2,0.6-0.2,0.9-0.8,0.8h-0.5c-0.5,0.7,0.4,1.4-0.1,2c-0.8,0.1-1.6,0.7-2.2,0c-0.9-0.1-1.4,0.7-1.9,0.9  C248.4,7.2,249.6,6.9,249.6,5.7z M237.8,7.6c0.9,0.2,1.6-0.2,2.1-0.6c-0.1-0.2-0.3-0.1-0.5-0.2c-0.1-1.1,0.3-2.2,1.3-2.6  c1,0,1.8-0.1,2.4,0.8c-0.2,1,1,1.6,0.1,2.5c-0.2,0-0.4-0.1-0.5,0.1c0.7,0.3,0.1,1.6,0.8,1.9c-0.5,0.2-0.1,1.4-1.1,1h-0.5  c0.2-0.5-0.3-0.5-0.5-0.7c-1,0.3-0.7,2.2-2.2,1.4c-0.7-0.1-1.2-1-1.9-1.1c-0.2-0.3-0.6-0.1-0.9-0.2c-0.2,0.2-0.2,0.7-0.7,0.5  C236,9,237.1,8.8,237.8,7.6z M223.4,22.3c0,0.3-0.1,0.6,0.1,0.8h0.3v0.3c-0.8-0.3-1.2-1.1-1.9-1.6c0-1.1-0.7-1.5-0.7-2.6  c0.1-0.9,0.3-2.3,1.1-3.1c0.6,0.1,0.5-0.7,1-0.7V15c1-0.5,2-1,3.6-0.8c0.5,0.6,1.5,0.1,1.6,1.1c0.2,0.7-0.9,0.7-1,1.1  c-0.2,0-0.7-0.1-0.6,0.3c0.6,0.6,0.3,1.6-0.2,2.4c-0.5,0.7-2.1-0.1-2,1c-0.8-0.1-0.9-0.9-1.7-1C222.9,20,222.5,21.6,223.4,22.3z   M231.4,31.7h-0.5v-0.7c0.4-0.2,0.3,0.3,0.5,0.5V31.7z M245.7,43.5c-1.9,0.5-2.4-0.9-3.7-1.3c-0.1-1.1-1.2-1.6-1-3  c0.5-0.3,0.3-0.8,0.7-1.2l1.7-1.6c-0.1-0.3-0.4-0.1-0.6-0.2c-0.3,0.7-1.4,0.7-1.4,1.4c-0.7,0.5-0.5,1.6-0.8,2.5  c0.3,0.3,0.1,0.7,0.2,1.1c-0.1-1.3-1.2-2.2-0.8-3.6c0.8-1,1.4-2.2,3.3-1.8v0.3l2.7,0.2c0,0.5-1,0.3-1.1,0.8c-0.9,0.3-0.9,1-1.2,1.8  c0,1.1,0.5,1.7,1.1,2.4l1.4-0.6c-0.1,0.5-0.1,0.5,0.2,0.9c0.7,0,0.9-0.4,1.6-0.8C247.8,41.9,246.7,43.1,245.7,43.5z M253.9,43  c0.1,0.8-0.9,0.5-1.4,0.8c-1.4,1.3-2.3,0.1-3.7-0.6v-2c0.3-0.1,0.5,0.1,0.7-0.2v-0.5l1.2-0.1c0.1-0.7-0.4-1.2-1.1-1.1  c-1.6-0.9-2.1,0.9-2.5,1.7c0.3-0.7-0.5-0.5-0.7-0.9h-2c0.1-1-0.2-2,0.8-2.2c0.7-0.2,1.2,0.5,1.9,0l-0.9-0.5c0.3-0.6,1.2-0.2,1.8-0.3  c0,0.1,0.1,0.3,0.2,0.3c0-0.3,1.4,0.4,1.7-0.3c-0.3,0.9,0.7,0.5,0.8,1c0.5-0.2,1.4,0.4,1.2-0.5c0.1-1.3-1.3,0-1.4-1  c1.8-0.5,2.9,0.7,3.7,1.4c-0.1,0.9-0.9,1.8-1.6,2.2c-0.4,0.1-0.9-0.1-1.2,0.1c0.7,0.2,0.8,1.2,0.5,1.9c-0.1,0.3-0.4,0.1-0.6,0.1  c0.1-0.4-0.2-0.6-0.3-0.9c-0.5-0.1-0.6,0.5-0.7,0.8c-0.4,0.9,0.8,0.9,1,1.2c2,0.2,2.7-1.5,3.5-3v-1.4c0.5,0.1,0.2-0.5,0.3-0.8  c-0.5-1.2-0.2-3.2-1.6-3.9c1,0,2.4-0.2,2.1,1.2c0.4,1.8,0.5,2.6,0.3,4.6c-0.8,0.2-0.2,1.2-0.6,1.7C254.1,41.5,255.1,43.2,253.9,43z   M252.6,40.5c0.1,0.5,1.4,1,0.5,1.6c-0.1,0.1-0.4,0.3-0.3,0.5h-0.5C252.9,42.2,252.5,41.2,252.6,40.5z M249.8,18.5  c0.9-1.2,1.8-1.8,3-2.7c1.1-1.1,2-1.7,3.7-1.9c0.4-0.6,1.5-0.1,2.2-0.5c6-0.5,9.7,2.6,11.8,7.1c-0.2,0.7,0.3,1,0.5,1.6l-0.1,5.4  c-0.3,0.7-0.6,1.8-0.9,2.5c-0.8,0.9-1.2,2-2.4,2.6c-0.4,0.5-1.1,1-1.8,1.2c-0.3-0.6-1.1-0.2-1.7-0.3c-0.3,0.7-1.2,0.1-1.8,0.5  c-2.6,0.3-5.5,0.3-7.5-0.9c-0.9-0.2-1.4,0.2-2.4,0.3c-1.2-1.6-2.7-2.7-3-4.9c-0.6-0.5-0.9-1.6-1-2.5l-0.1-1.9h0.1  C248.2,21.8,249.3,20.3,249.8,18.5z M264.4,43.3l-0.3-0.5c0,0,0,0,0,0c-0.1,0-0.2,0-0.3,0.1v0.5h-0.3c-0.1-0.8-0.5-1-1-1.4  c-0.3,0.1-0.1,0.4-0.1,0.7c0.1,0.1,0.3,0.3,0.5,0.3v0.5h-0.3c0.1-0.3,0-0.7-0.3-0.8c-0.1-0.1-0.3,0.1-0.3,0.3l0.3,0.8  c-0.9,0.3-0.5-0.9-1-1.1c-0.1-1-0.8-1.6-1-2.4c-0.3,0.2-0.1,0.6-0.1,0.9l-0.8-0.1c0.3,0,0.3-0.3,0.3-0.5c-0.1-0.2,0.1-0.5-0.2-0.6  c-0.7,0.4-0.5,1.4-0.6,2.2l-1.1,1.6l-0.3-0.6c-0.5-0.1-0.1,0.5-0.7,0.3c-0.4-0.7,0.8-0.5,0.2-1c-0.9,0-0.3,1.2-1.1,1  c-0.4-0.7,0.7-0.5,0.1-1l-1,1c0.1-0.9,1-1.4,1-2.2c1.1-1.8,0.6-4.1,0.5-6.3l-0.3-0.1c2,0.7,5.2,0.7,7.2,0c0.1,0.9-0.8,1-0.5,2h-0.1  c-0.7,2.5,0.5,4,1.4,6c0.1,0,0.1,0,0.2,0C264.5,43,264.4,43.2,264.4,43.3z M269.2,43.8c-0.8,0.1-0.9,0.5-1.7,0.3  c-0.7-0.4-2-0.5-2.4-1.1c-1.3-2-2.4-4.8-1.4-7.7c0.2,0.1,0.4-0.1,0.3-0.3c0.1-0.6,1-1,1.7-0.5c-1.1,1.5-1.8,3.5-1.2,5.8  c0.5,0.5,0.6,1.9,1.4,2c0.3,0.4,0.9,1,1.6,1.2c0.9,0.3,1.2-0.5,1.6-0.9c0.3-0.7-0.5-0.5-0.5-1c-0.4-0.1-0.7,0.1-0.8,0.5v0.3h-0.3  c-0.3-1.1,0.2-2.1,1.2-2.2c0.9-0.1,1.4,0.4,1.7,0.9C270.7,42.6,270,43.3,269.2,43.8z M266.8,42.6c-0.1-0.6-1.2-1.1-0.3-1.7l0.5-0.3  C266.7,41.1,266.9,41.9,266.8,42.6z M270.3,39.3c-2.1-0.5-3.2,1.9-4.7,0.1c0.1-0.7-0.6-0.8-0.3-1.6c1.1-0.1,1-1,2.2-0.9  c0.3,0.9-1.2,0.7-0.7,1.7c2,0.1,3.7-1.4,6.2-1.1v-0.1h0.3c0.2,0.5-0.5,0.4-0.8,0.5C271.9,38.5,270.9,38.7,270.3,39.3z M279.3,38.5  c-0.5,0.9,0.4,2.7-0.8,2.8c-0.1-1.3,0.3-3.1-1-3.6c-0.3-0.3-0.3-1.1-0.9-0.8c-0.8,0.9,0.7,0.6,0.8,1.1c0.9,0.6,0.9,2.4,0.6,3.6  c-0.7,0.5-1.1,1.2-2.2,1.4v0.5c-1-0.2-2.6,0.4-3-0.5c-1,0-0.7-1.1-1.2-1.6c0.5-0.5,2.1,1.6,2.2-0.3v-0.7c0.5,0,0.9,0.5,1.6,0.3  c0.5-1.2,0.5-1.5-0.2-2.6c-0.7,0.5,0.9,1.5-0.3,2.1c-0.3-0.9-1.2-2.1-2.4-1.6c-0.2,0.3-0.2,1,0,1.4c0.8,0,0.1-1.6,1.1-0.8  c1,0.8-0.8,1-0.6,1.9c-0.7-0.2-0.3-0.9-0.7-1.2l-0.5,0.5c0,0-0.5-0.4-0.3-0.9c0.1-1,1.2-1,1.9-1.6c0.4,0,1,0.7,1.6,0.3  c-0.3-0.6-1.2-0.6-1.2-1.4c0.9,0,2,0,2.8,0l-0.7-0.5C277.2,36.6,278.9,37.1,279.3,38.5z M288.9,25.6l-1.1,0.8l1.2,0.1  c-0.5,0.4-0.9,0.7-1.7,0.8V27c0.4,0.2,0.5-0.3,0.7-0.5c-0.8-0.5-1.2,0.4-1.4,1c0.1,0.7,0.8,0.4,1.2,0.5c1.5-1.1,3.3-2.4,5.1-1.9  c0.1,0.8,0.8,1.1,1.7,1c0.7,0.5,1.9,1.4,1.4,2.8c-0.6,0.7-0.7,1.8-1.7,2h-1.6c-0.4-0.8,0.7-0.5,0.8-0.8l0.3,0.3  c-0.7-2,2.1-2,0.7-3.9l-1.7,2.4c0.1,0.3,0.4,0.1,0.3,0.5c0.3,0.7-1,0.5-0.9,0.8c-0.2-0.3-0.5-0.1-0.8-0.1c-0.3,0.1-0.1,0.5-0.1,0.8  c-2.4-0.5-4.1-3-7.1-1.6c-0.8,0.5-2.4,0.3-2.6,1.7c2.2,0.8,2.8-1.6,5.1-0.8c0.2,0.6,0.2,1.3,0.5,2.2c0.7-0.2,0.7,0.8,0.8,1l-0.1,0.8  c-1.8-1.9-5.1-2.2-8.1-1.6c-2.5,0.9-5.2,1.4-7.2,3.2h-1.6c2.1-1.4,5.1-2,7.1-3.7c-0.7-0.3-1,0.5-1.7,0.6c-2.2,1.2-4.7,2.2-7.1,3.2  c-0.3-1.1,1.7-0.2,1.2-1.4l-2,0.6c1.5-1,2-2.3,3.3-3.7c2-3,2.8-6.8,2.4-11c0.4-0.5,1.1-0.8,1.1-1.6c0.5-0.7,1.6-1.1,1.6-2.4  c0.3-0.6,1-1.2,0.9-2.2c0.2-0.6,1-1,0.5-1.9c-0.5,1.4-2.1,2.3-1.7,4.1l-2.8,3.5c-0.6-1.6,2.2-2.4,2.5-4.1l-0.1-0.1  c-1.3,0.7-2.1,3.1-3.3,2.4c-0.5-2.3-2.6-4.5-4.5-5.2c0.4,0.7,1.2,0.7,1.7,1.6c0.8,0.9,1.3,1.7,1.9,2.8h0.3c0.4,1.3,1,2.4,1.2,3.9  c0.1,1.8,0.5,4.4-0.3,6c0.6,1.1-1,0.9-0.5,2c-1.9,2.4-3.4,6-6.8,6.8c0.1-0.9,1-1.2,1.1-2.2c1-0.9,2-2,2.8-3c1.4-0.6,1.1-2.5,2-3.6  V27h0.1c1.3-3.9-0.8-6.6-1.8-9.6c-0.3-0.3-0.9-0.8-1.3-0.9c0-0.7-1.1-0.6-1-1.2c-0.5-0.2-0.5-1-1.3-0.8c-0.5-0.5-1-0.9-1.8-1.1  c-3.6-1.8-9-0.8-11.8,1.2c-0.7,0.7-1.5,1.9-2.6,2.4c-0.9,0.1-0.1,1.6-1.2,1.6v0.7c-0.5,0.2-0.2,0.9-0.8,1c-0.5,2.8-1.4,7.3,0.8,9.3  c-0.5,1.2,1,0.9,0.9,2c0.5,0.4,0.9,1,1.3,1.6c0.7,1,1.8,1.2,2,2.6c0.4,0.4,0.8,0.3,0.6,1c-2.6-1.2-4.6-3.6-6-5.8  c-0.3,0.4-0.1,1.1,0.2,1.4c0.5,0.7,1.4,1.7,2.2,2.2c0,0.2,0,0.4,0.2,0.5h0.3v0.3c-1.4-0.4-2.7-1.2-4.2-1.1c0.9,0.3,1.8,0.8,2.6,1.2  h0.5c-0.3,0.5-1.3,0.3-1.8,0.2c0-0.7-0.7-0.1-0.9-0.5c-0.8-0.5-2.2-1.3-3.1-1.2c1.1,1.1,2.7,1.5,4.1,2.2c-1.3,0.7-2.2-0.7-3.3-0.8  c-0.1-0.9-1-0.2-1.4-0.7c-0.6-0.3-1.5-0.7-2.2-0.8c-2.2-0.8-5.8-1.3-7.6,0.5c-0.9,0.3-2-0.3-1.6-1.4c0.5-0.5,1.3-0.9,2.1-0.5  c0.3-0.4-0.4-0.3-0.3-0.7c-0.5,0.1-0.4-0.5-0.5-0.8c2.1-0.9,3.5,1,5.2,0.8c0.3-0.1,0.1-0.5,0.1-0.8c-1.2,0-1.6-1.2-3.1-0.8v-0.1  c-2.8-1.1-3.9,1-6.3,1.2c0.3-1.2-1.4-0.3-1.6-1.1c0.2-0.9-0.3-1.6-0.9-1.9c-0.2,0-0.4,0-0.5,0.2c0.6,0.4,0.8,1,0.5,1.7  c-0.1-0.1-0.3,0.1-0.3,0.1c0.1,0.7,1.2,0.1,0.9,1l-1.6-0.2c-0.1-0.6-0.9-0.1-1.2-0.5c-0.7-0.5-0.5-1.8-0.3-2.7c1-0.5,1.8-1.6,3-1.4  c-0.1,0.1,0.1,0.2,0.1,0.3c0.5-0.5-0.4-1.2,0.5-1.3c1.5,0.3,3.2,1,4.2,2.2c0.5-0.1,1,0.5,1.4,0c0.3-0.9-1.8-0.1-1.6-1.2  c0.3,0,0.7,0.6,1.1,0.1c-0.2-0.7-1.2-0.5-1.8-0.9c-2.8-0.6-5.8-1-6.8-3.9c0.2,0,0.4,0,0.5-0.2l-0.5-0.6c0.3-0.1,1.6,0.1,1.6-0.7  c1.2,0.3,2-0.5,2.6-1.1c0.5-0.3-0.9-1.7,0.5-2c0.1-0.1,0.2-0.1,0.1-0.3l-0.1-0.1c-0.1-0.1,0.9-0.4,0.3-0.9c0.8-1.4,1.2,0.6,2.4,0.1  c0.1,0.9,1,0.3,1,0.9c0.3-0.2,0.1-0.6,0.2-0.9c-0.3-0.3-0.7-0.1-1-0.1v-0.5c0.7,0.3,0.5-0.4,1-0.6c-0.3-1,0.5-1,0.5-1.9  c0.5-0.2,0.9-0.7,1.6-0.5c-0.1,1.7,1.3,2.2,1.1,3.9l-0.7,0.3c-0.6-0.1-0.1-1-0.5-1.4c-0.3,1.1-1.6-0.3-2.2,0.7  c0.7,0.1,1,0.3,1.3,0.8l-0.5,0.6l-0.6-0.5c0.2,0.7,0.9,1.7,1.2,2.5c1.2,2,1.6,4.6,3.6,6.2c0.4-0.5-0.2-1.1-0.5-1.4  c0.3,0.5,1.2,0.5,1.6,0.7c-1-1.1-2.6-1.6-3-3.3c-0.7-0.2-0.7-1.2-0.6-1.9c1.8,0.1-0.4-1.5,0.5-1.9c0.9-0.2,1.1-0.9,2-0.7  c0.9,0,1.2,1.4,0.7,2.1c-0.3,0-0.7-0.1-0.8,0.1c0.2,0.3,0.5,0.3,0.8,0.3c0.1-0.2,0.5-0.4,0.5-0.7c1.3,0.1,0,2.6,1.7,2.2  c0.5,1.7,0.1,4.3,1.6,5.5c0.4,0.8,0.9,1.3,1.6,1.9c0,0.9,1.2,0.3,1.8,0.5c0.7-0.6,0-1.4,0-2c-0.6-1.9-3.1-1.8-3.5-3.8  c0.3-0.3,0.7-0.1,1.1-0.1c0.2,0.5,0.6,0.9,1.2,0.9c0.8-1.4-1.2-1-1.4-2c-1,0.4-1.8-0.7-2.2-1.4c-0.3-0.6-0.2-1.7,0.5-1.9  c0.8-0.3,1.3,0.3,1.9,0.7c0.3-0.1,0.1-0.4,0.1-0.7c-0.8-0.4-1.7-0.5-2.7-0.5c-0.7-0.1-0.9-1.1-1.8-0.9c-2.4-0.9-2.7-3.5-2.7-6.2  c0,0.8,0.5,1.3,0.6,2.2l0.2-2.7c0.3,0.1,0.7,0.3,0.8,0.8c0.2-0.1,0.1-0.3,0.1-0.5c0.6,0.5,0.8,1,1.6,1.1c-0.1,1.2,1.1-0.1,1.2,0.9  c0.2-0.1,0.2-0.3,0.2-0.5c0.7,0.1,0.4,1.4,1.1,1.6c-0.1,1.6,1.3,1.7,1.2,3.3c0.7,0.2,0.5,1.1,0.9,1.4c0.9,1.4,2.6,1.8,2.2,3.9h-0.2  c-0.7,3.2,0.5,5.9,1.4,8.3c1.1-0.6-0.3-1.7-0.5-2.5c-1.6-5.4,0.4-10.8,3.7-14c0.9-1.2,2.9-1.2,3.7-2.5c-0.3-0.3-0.7-0.1-1-0.2  c-0.1,0.9-1.5,0.1-1.2,1.2c-1.4,0-2,1.4-2.5,2.2c-0.4-0.1-0.6,0-0.7,0.2c0,0.2-0.1,0.3-0.2,0.4c-0.1,0.3-0.3,0.5-0.6,0.5  c-0.6,0.9-0.7,2.2-1.7,2.4c-0.1-0.7-1-0.5-1.1-1l-0.2,0.2c0.5,0.9,1.8,0.9,1.3,2.4c-0.6-0.2-1.1-1.2-1.8-1.2  c-0.5-1.3-1.2-2.2-1.8-3.4c-0.1-0.1-0.1-0.1-0.1-0.3c0,0.1,0.1,0.2,0.1,0.3c0,0,0,0,0.1,0.1c0-0.9-0.4-1.8-1.1-2.5  c0.4-0.9-0.7-0.9-0.3-1.8c0.2,0,0.4,0,0.5,0.2c0.3-0.1,0.1-0.5,0.2-0.7c0.7-0.3,0.4,0.5,0.6,0.8l0.2,0.2c0.3-0.3,0.1-0.7,0.1-1h0.3  c0,0.2-0.1,0.4,0.1,0.5c0.3,0.1,0.4-0.2,0.3-0.5v-0.5c1.2-0.5-0.2-1.1,0-2c-0.1-0.9,0.7-1.4,0.7-1.8c2.6,1.5,1.4,5.6,1.9,8.5  c0.3,0.5,0.7,0.8,1,1.1c0.3-0.3,0.9-0.3,1.2-0.5c0.1-0.1,0.1-0.3,0.2-0.4c0-0.1,0-0.3-0.1-0.6c-0.4-0.7-0.5-1.7-1.4-1.9l0.1-2.2  c0.3,0,0.4-0.3,0.3-0.5c-0.2-0.5,0.3-0.3,0.5-0.5h0.3c0,0.5,0.1,0.9-0.5,1c-0.5,0.7,0.3,0.9,0.5,1.4c0.3-0.1,0.1-0.5,0.2-0.8  c0,0.9,0.8,1.2,1.4,1.8c0.8,0.3,0.7-0.7,1.1-0.8c-0.7-0.7-2-1.7-1.9-3c0.4-0.2,0.6-0.7,0.5-1.2c0.5-0.4,0.9,1,1-0.1  c0.4-0.2,0.4,0.3,0.6,0.5c0.2-0.1,0.2-0.3,0.2-0.5c1.2,0.2,2.2-0.3,2.7-1.4V6h0.6c0,0.2,0,0.4,0.2,0.5h0.5c0,0.1-0.1,0.3,0.1,0.5  c0.4-0.7,0.1-1.6-0.3-2V4.8h0.3V5c0.3,0.2,0.7-0.7,1-0.3c0-0.6,0.5-0.5,0.9-0.5v0.1c0.5-0.1,0.4-0.2,0.7,0.5  c-0.1,0.1,0.1,0.3,0.1,0.3c0.2-0.1,0.1-0.3,0.1-0.5c0.7-0.1,0.3,0.6,0.7,0.9c0.3-0.2,0.1-0.6,0.1-0.9h0.7c0.1,0.3-0.1,0.7,0.1,0.9  c0.2-0.1,0.2-0.3,0.2-0.5c0.6,1.4,1.3-0.1,2.2,0.5c0.7,0.1,0.1-0.7,0.5-0.9c0.4,0-0.2,0.9,0.5,0.8c0.1-0.1,0.1-0.2,0.1-0.3V5  c0-0.1,0-0.2,0-0.3V5c0,0.1,0,0.1,0,0.2v1.7c-0.2,0.1-0.4,0-0.5,0.2c0.2,0.5-0.3,0.3-0.5,0.5c-0.6,0.3-0.9,0.7-1,1.4v0.9  c0.5,0.3,1.4,0.3,1.6-0.3c0-0.1,0.1-0.3,0-0.5c0,0,0,0,0,0c0,0,0,0,0-0.1c0,0,0-0.1-0.1-0.1l-0.7,0.8c-0.5-0.7,0.1-1.3,0.7-1.8  c0.1,0.4-0.1,0.8,0.1,1.1c0,0,0,0,0,0.1c0.5-0.5,0.5-1.4,0.6-2c0.5-0.4,0.7-1.2,1.4-1.4c0.2,1.2,0.6,2.2,1.8,2.6h0.5  c0,0.1-0.1,0.3,0.1,0.5c0.4-0.1,0.4-0.5,0.9-0.3c0.1,0.2-0.1,0.5,0.2,0.7c0.7-1.1,0.4,0.7,1.4,0.1c0.7,1.8-1.1,2.2-1.7,3.3  c0.1,0.6,0.4,0.9,0.9,1c0.8-0.1,1.2-1,1.4-1.6c0.4,0-0.1,0.9,0.5,0.8c1.1-1.5-1.5-2.6,0-3.3c0.7,0.9,1.9,1.3,1.4,2.9  c0,1.4-2,2-1.2,3.9c0.3,0.3,0.9,0.1,1.4,0.1c1.2-1.4,0.5-3.8,0.7-5.6c0.5-0.4,0.4-1.2,0.6-1.8c0.3-0.7,0.7-1.2,1.3-1.7  c0.2,0.7-1,0.5-0.3,1.1l0.8-0.7v0.5c-0.9,0.1-0.2,1.4-0.7,1.9c0.9,0.2,0.8,0.9,1.4,1.2l1.2-0.1v-0.3c0.4-0.1,0.5,0.5,0.5,0.8  c0.1,0.2-0.1,0.5,0.2,0.7c0.9-1.4,1.3,0.7,2.6,0c0.1,0.2-0.1,0.5,0.2,0.6c0.7,0-0.2-1.3,0.8-1.1c0.1,0.3-0.1,0.7,0.1,0.8  c0.3-0.1,0.1-0.5,0.2-0.8c1.2-0.2,0.3,1.3,0.8,1.8c0.4-0.9,0.6-2.5-0.2-3.3c-1.3,0-1.9,1.4-3.5,1.1c-0.2,0.1-0.5-0.5-1-0.6V9.9  l-2.1-0.1V8.1c0.4-0.1,0.8,0.1,1-0.3c-0.7-0.9-1.1-1.6-0.8-3c0.8-0.6,1.5-0.7,2.7-0.6c0.4,0.7,1,1.4,1,2.5h0.2L279.3,7  c0.3,0.3,0.8,0.1,1.2,0.1c0.7,0.5,1.3,0.9,2,1.2c0.5,1,1.2,2,1.4,3.1c-0.7,0.4,0.2,0.8,0.1,1.4c-0.1,3.4-3.7,4.3-6.2,5.4  c0.5,0.3,1,0.1,1.6,0.1c0.9,1.4-1.6,2.3,0.3,3c0.5-1-0.4-2.8,1.2-2.6c0,0.1,0.1,0.3,0.2,0.3c0.1,0.1,0.2-0.1,0.3-0.1  c0.3-1-1.2-0.5-0.7-1.6c0.2-0.1,0.5,0.1,0.7-0.2V17c1-0.3,2,0.3,2.6,1c0.3-0.3,0.1-0.7,0.2-1.1c0.8,0.3,0.8-1,1.6-0.3  c0.2,1.2-0.3,1.9-0.8,2.7c-0.3,0,0.1-1.4-0.8-1.4c-0.3,0.7-0.3,1.5-0.8,1.9c-0.2-1.3-1.6-0.1-2.2-0.5v0.1c0.5,0.5,2.2-0.5,1.8,1  c0,0.2-0.1,0.4,0.1,0.5c0.3-0.5,0.8-1,1.2-1.2v0.8c-0.5,0.3-0.4,1.1-0.6,1.7c-0.6,0.9-1.4,1.4-2.2,2.2c0.5,0.7,0.7-0.6,0.9-0.2  c-0.1,0.3-0.2,0.5-0.1,0.8c1.2-0.4,1.4-2,2.2-3.3c1.3-1.2,1.2-3.4,2.5-4.6c0.7-1.2,2.4-0.8,3-2h0.6c0.1,0.4-0.1,0.9,0.2,1.1  c-1.1,1.7,1.6,4.1-1.1,4.9c-0.2,0.3-0.9,0.8-1.2,1l-2.7,2.8c0.1,0.2,0.2,0.1,0.4,0.1c0.2-0.1,0.3-0.3,0.4-0.5l-0.3,0.5  c0,0,0,0-0.1,0c-0.5,0.5-1.2,1-1,1.6c3.1-1.8,3.9-5.1,7.3-6.4c0,0.2-0.1,0.4,0.1,0.5l0.7-0.5c-0.1,0.3,0.3,0.3,0.1,0.7h0.9v0.1  l0.8-0.1V21h0.8C295.2,24.2,292,25.2,288.9,25.6z M234.5,18.8l-0.5,0.3c-0.2-1-0.9-0.9,0-1.8C234.7,17.4,234.7,18.3,234.5,18.8z   M241,22.7v-0.7c0.3,0.2,0.6,0.2,0.5,0.7H241z M241.7,25.1c0.9-0.3,0.9,1.1,1.4,1.4v1c-0.9,0.1-0.3-1.2-1.1-1.2L241.7,25.1z   M247.1,14.2c0.3,0.3,0.4,0.7,0.3,1v0.1L247.1,14.2z M297.8,21.5c-0.3,1.1-1.9,1.5-2.4,2.2c0.3-1.6,2.8-2.8,0.9-4.5  c-0.5,0.2-0.9,0.1-0.9,0.8h-0.8v-1c-0.3,0.1-1.2,0.4-1.9,0.2c-0.1-0.8-0.9-1.4-0.1-2.1c0.5,0,0.5-0.7,0.5-1.1  c-0.6-0.1-1-0.3-1.8-0.2V15c0.5,0.1,0.3-0.5,0.3-0.8c0.7,0.9,1-0.5,2,0v0.2c2-0.4,2.6,1.4,3.8,2.2C298,18.3,298.8,19.5,297.8,21.5z   M256.1,9.2c0.1,0.7,1,1,1.7,0.7c0.3-0.9-0.5-0.9-0.5-1.7c-1.2,0.3-0.9-1.6-0.9-2.6l-0.2,1.6L255.7,7C255.5,8,256.4,8.1,256.1,9.2z   M257.4,9.7h-0.7l-0.1-1.6C256.9,8.6,257.6,8.8,257.4,9.7z M257.4,7.5L257.2,7h0.1V7.5z M274.6,8.7l0.3-0.6l-0.1,0.6H274.6z   M261.3,8.9l-0.1-0.7l0.1,0.1V8.9z M245.4,9.9h0.1v0.5L245.4,9.9z M267.5,12.8c0,0.1,0,0.3,0.1,0.4c-1.6-0.8-2.9-2.1-5.2-2v-0.2  c-2-0.1-4.5-0.5-6.2,0.3c-0.9-0.2-1.6,0.4-2.2,0.5v-0.3c2.4-0.8,4.8-1,7.3-0.9c0,0.4,0.4,0.3,0.7,0.3l0.8-0.3v0.3  c1.2-0.5,1.2,0.9,2.5,0.6c0,0.2,0,0.4,0.2,0.5c0.7-1,0.6,0.5,1.2,0.5c0.3,0.1,0.1,0.5,0.5,0.5L267.5,12.8z M267.7,13.3  c0.1,0,0.1,0,0.2,0v0.1C267.9,13.4,267.8,13.4,267.7,13.3z M267.6,13.2c0.1,0,0.1,0.1,0.2,0.1C267.7,13.3,267.6,13.3,267.6,13.2z   M267.5,12.8L267.5,12.8C267.5,12.8,267.5,12.8,267.5,12.8z M239.4,13.4l0.3,0.5h-0.3V13.4z M243.5,16.4c-0.2-0.2-0.4-0.4-0.6-0.6  C243.2,15.9,243.3,16.1,243.5,16.4z M243.5,16.4c0.5,0.5,0.9,0.9,1.4,1.2v0.3c-0.7,0.4-0.5-0.7-0.8-0.8  C243.8,17,243.6,16.7,243.5,16.4z M251.4,29.4l11.6,0.1v0.1h4.3c0.9-0.8,0.5-3.1,0.3-4.1c0,1-0.6,1.6-0.9,2.4  c-0.3,1.4-2.3,1.1-3.5,0.9c-0.1-3.9,0.2-7.2,0.3-11h0.9v-0.3h-9.6v0.3c0.4,0.1,0.9-0.1,1.2,0.2l-0.2,6h-0.1l0.3,0.9  c0.1,0.3-0.1,0.5-0.3,0.5c-0.1,1.2,0.3,2.6-0.3,3.6c-0.9,0.3-1.5-0.5-2.2-0.5c-1.4-0.3-1.2-1.9-1.4-3h-0.7  C251.5,26.7,250.6,28.2,251.4,29.4z M258.3,24.9h0.2l0.1-6.9h2.2v5.1h-0.2l-0.3,5.8l-2.1-0.1V24.9z M277,27.8  c0.2-0.9,0.8-1.4,0.9-2.2c1.3-1.2,0.2-3.5,1-4.6c-0.7,0.4-1,1.6-1.9,1.1c0.7-0.8,0.1-1.9-0.3-2.5c0.4-0.3,0.4-1,0.9-1.1  c-0.7,0.1-1,0.9-1.3,1.4c0.1,0.4,0.5,0.4,0.8,0.6c0,1.2-0.7,2-1.7,2.6c0.1,0.3-0.1,0.6,0.1,0.8c0.7,0.1,0.5-0.7,1-1  c0.5,0.1,1.1-0.1,1.6,0.2c0,0.4,0,0.9-0.5,0.9c-0.9,1.8-3.5,1.9-3.1,4.7C275.7,29,276.1,28.2,277,27.8z M276.6,25.7  c0.3-0.1,0.6-0.4,1.1-0.3c-0.3,0.9-1,1.8-1.6,2.4C275.5,26.9,276.5,26.6,276.6,25.7z M278,18.5c-0.1,0-0.2,0-0.3,0  C277.8,18.5,277.8,18.5,278,18.5z M237.2,18.9c-0.9,0.1-1,1-1,1.9c-0.1-0.4-1.1-1.2-0.3-1.6C236.6,19.3,236.6,18.8,237.2,18.9z   M242.9,19.3h0.3v1.1c-0.2,0-0.4,0-0.5-0.2c-0.6,0.3-0.2,1-0.3,1.6c-0.2-0.5-0.7-0.7-0.5-1.4C242,19.8,243.4,20.3,242.9,19.3z   M241.9,31.9C241.9,31.9,241.9,31.9,241.9,31.9C241.9,31.9,241.9,31.9,241.9,31.9C241.9,31.9,241.9,31.9,241.9,31.9z M242,31.9  c1.6,0.5,2.6,1.6,4.3,2c-0.7,0.1-1.7-0.7-2.6-1.1C243.1,32.5,242.5,32.2,242,31.9z M239.7,30c-1,0-1-0.9-1.7-1.2  c-0.1-0.3-0.8-0.1-0.8-0.7c-3.5-2.4-5.6-5.8-9.3-8c0.3,0.3,0.9,0.8,1.1,1.2c2.5,1.1,3.1,4.1,5.4,5.4c0.1,1.6,2.1,1.3,2.5,2.7h0.3  c0.2,0.1,0.1,0.3,0.1,0.5h0.3c0.5,0,0.4,0.5,0.7,0.8c1,0.5,1.8,1.3,2.8,1.7c0.7,0.6,1.6,1.4,2.4,1.2c-1.8-1-3.5-2.2-5.2-3.3  c0-0.2-0.1-0.4,0.1-0.5c1.2,0.5,2.3,1.3,3.5,2C241.7,30.6,239.8,31.1,239.7,30z M236.1,27.9c-0.3-0.2-0.5-0.4-0.8-0.6  C235.6,27.5,235.9,27.7,236.1,27.9c0.2,0.1,0.3,0.2,0.6,0.2c0.2,0.7,1.4,1,1.6,1.8C237.4,29.1,236.9,28.5,236.1,27.9z M288.5,20.4  l-0.1,0.1C288.4,20.4,288.5,20.4,288.5,20.4z M287.9,20.8l0.5-0.4c-0.1,0.1,0,0.2,0,0.4H287.9z M272.3,22l-0.3-0.8l0.3,0.5V22z   M294.8,21.6h0.2l-0.5,0.5L294.8,21.6z M291.7,22.3h0.3l-0.5,0.5L291.7,22.3z M294.4,22.5v0.3c-0.1,0-0.3,0-0.4,0.1  C294.2,22.8,294.3,22.7,294.4,22.5z M294,22.9c-0.1,0.1-0.2,0.1-0.3,0.2C293.8,23,293.9,23,294,22.9z M293.7,23.1  c0,0-0.1,0.1-0.1,0.1C293.5,23.2,293.6,23.1,293.7,23.1z M272.6,24.8l-0.2-0.7l0.2,0.2V24.8z M280.3,25.6l1.3-1.1  c0.1,0.2-1.9,1.1-0.5,1.6c0.8,0.1,1-0.6,1.4-0.9c-0.3,0.7-0.7,1.1-1.4,1.2C280.4,26.7,280.7,25.7,280.3,25.6z M239.2,25.5  C239.2,25.5,239.2,25.5,239.2,25.5l0,0.7c-0.5,0.4-1.2,0-1.4-0.5l-0.1-0.1C237.9,25.7,239.4,26.6,239.2,25.5z M237.7,25.6  L237.7,25.6C237.7,25.6,237.7,25.6,237.7,25.6z M239.1,25.1c0.1,0.2,0.1,0.3,0.1,0.4c-0.1-0.1-0.1-0.3-0.2-0.4L239.1,25.1z   M239,25.1l-0.5-0.2C238.7,24.8,238.9,24.9,239,25.1z M284.3,27.6c-0.4,0.7-1.1,1.2-1.7,1.9c-0.1,0-0.1,0-0.2,0c0,0,0-0.1,0-0.1  c0.9-1,1.9-1.8,2.6-2.9c-0.1-0.3-0.4-0.1-0.6-0.1c-0.1,0.2-0.3,0.4-0.4,0.5c0.2-0.6,0.6-0.8,1-1.1C285,26.4,285.7,27.3,284.3,27.6z   M283.9,27c0,0,0.1-0.1,0.1-0.1C284,26.9,284,27,283.9,27C284,27,284,27,283.9,27z M283.4,27.3c0,0.1-0.1,0.3-0.2,0.3  C283.3,27.5,283.3,27.4,283.4,27.3z M285.1,25.8c0-0.3,0.2-0.5,0.6-0.7C285.5,25.4,285.3,25.6,285.1,25.8z M283.9,27  c-0.2,0.1-0.4,0.2-0.5,0.4C283.5,27.1,283.5,26.8,283.9,27z M282.4,29.5c-0.1,0.2-0.3,0.3-0.5,0.4C282,29.7,282.1,29.5,282.4,29.5z   M281.9,29.9c-0.2,0.5-0.2,1.2-1,1c-0.9,0.2-1.4,1.4-2.6,1.6v0.3h-0.5c1.1-0.7,2.2-1.5,3.1-2.4c0.2,0,0.5,0.1,0.7-0.1  C281.6,30.1,281.7,30,281.9,29.9z M278.5,31.4c-0.4,0.6-1.1,0.8-1.7,1.1c1.1-0.6,2.2-1.4,3.1-2.3c0.5,0,0.7-0.2,0.9-0.5  C280.2,30.5,279.2,30.8,278.5,31.4z M270.7,35.3c1.5-0.8,3.1-1.4,4.6-2.1c-0.2,0.2-0.4,0.3-0.5,0.6  C273.4,34.2,271.7,34.9,270.7,35.3z M282.7,27.9c-0.6,0.7-1.2,1.2-1.8,1.6c0.2-0.2,0.3-0.4,0.6-0.4L282.7,27.9z M280.9,29.5  c0,0.1-0.1,0.1-0.1,0.2C280.8,29.6,280.8,29.6,280.9,29.5C280.9,29.5,280.9,29.5,280.9,29.5z M275.3,33.2c0.4-0.3,0.9-0.5,1.4-0.7  C276.3,32.7,275.8,33,275.3,33.2z M247.5,38.4c0.1,0.1,0.1,0.3,0.1,0.4C247.6,38.7,247.6,38.5,247.5,38.4z M247.5,38.4  C247.5,38.3,247.5,38.3,247.5,38.4l-0.4-0.1V38C247.4,37.9,247.5,38.1,247.5,38.4z M262.4,39.4h0.1v0.7h-0.1V39.4z M261.8,40.5h0.2  V41L261.8,40.5z M256.4,41.9c0-0.2,0.1-0.3,0.1-0.5C256.6,41.5,256.5,41.7,256.4,41.9z M256.1,42c0.2,0,0.2,0,0.3-0.1  c-0.1,0.2-0.1,0.5-0.2,0.7C256,42.6,256.2,42.2,256.1,42z M256.9,40.8c-0.2,0.1-0.3,0.3-0.3,0.5C256.6,41.1,256.6,40.9,256.9,40.8z   M261.4,41.4l0.5,1.3h-0.3L261.4,41.4z M227.4,164.8H226l-6.9-6.1v6.1h-2.2v-9.7h1.7l6.6,5.7v-5.7h2.2V164.8z M239.6,164.8h-8.8  v-9.7h8.4v1.4h-5.3v2.6h4.1v1.5h-4.1v2.8h5.7V164.8z M258.9,155.1l-3.8,9.7h-2.3l-2.9-6.3l-3,6.3h-2.2l-3.8-9.7h3.1l2.4,6.2l2.8-6.2  h2.2l2.8,6.2l2.2-6.2H258.9z M275.7,155.1l-4.6,5.6v4.1H268v-3.9l-4.6-5.8h3.6l3,3.9l3.2-3.9H275.7z M288.4,160.2  c0,1.5-0.5,2.7-1.6,3.5c-1,0.8-2.4,1.2-4.1,1.2c-1.7,0-3-0.4-4.1-1.2c-1-0.8-1.6-2-1.6-3.5v-0.6c0-1.4,0.5-2.6,1.5-3.4  c1-0.9,2.4-1.3,4.3-1.3c1.8,0,3.2,0.5,4.2,1.4c0.9,0.9,1.4,2,1.4,3.4V160.2z M285.3,160.1v-0.3c0-1.2-0.1-2.1-0.4-2.7  c-0.3-0.6-1-0.9-2.1-0.9c-1,0-1.7,0.3-2,0.8c-0.3,0.5-0.5,1.4-0.5,2.8v0.2c0,1.3,0.1,2.3,0.4,2.7c0.3,0.5,1,0.7,2.1,0.7  c0.9,0,1.5-0.3,1.9-0.8C285.1,162.2,285.3,161.3,285.3,160.1z M300.7,164.8h-3.1c0-1.6-0.2-2.7-0.6-3.4c-0.4-0.7-1-1-1.9-1h-0.7v4.4  h-3.1v-9.7h5.4c1.3,0,2.3,0.2,2.8,0.6c0.6,0.4,0.8,0.9,0.8,1.5v0.5c0,0.6-0.2,1-0.7,1.3c-0.5,0.3-1.2,0.5-2.1,0.6  c1.1,0.2,1.9,0.7,2.5,1.5C300.4,161.9,300.7,163.1,300.7,164.8z M297.3,157.9v-0.3c0-0.4-0.2-0.7-0.5-0.9c-0.3-0.2-0.8-0.3-1.4-0.3  h-1v2.6h0.8c0.7,0,1.3-0.1,1.6-0.3C297.1,158.5,297.3,158.3,297.3,157.9z M314.9,164.8h-3.7l-4.1-3.6l-0.5,0.4v3.2h-3.1v-9.7h3.1  v4.1l4.3-4.1h3.1l-5.2,4.5L314.9,164.8z M173.9,166.7c-1.9,1.2-4.3,2.8-6.1,4.4c-0.8-0.4-0.8,0.7-1.8,0.4v0.5  c-6.8,3.5-16.6,3.2-23.9,0.8c-11.6-4.1-21.7-10.7-33-15.6c3-2.5,6.6-5.3,9.5-7.7c19.4-16.3,30.8-37.9,45.5-58.4  c2.9-2,6.6-3.1,10-4.4c17.3-6.6,34.8-16.2,46.7-30.6c3-4.3,6.1-9.6,2.8-14.9l-1.6-1.3c-8.4-3.1-17,1.2-24.6,4.2  c-18.7,11-36.2,25.2-48.7,43.2c-1.1,1.8-2.2,3.4-4.3,3.8c-7.3,1.3-15.1,2.3-22.9,2.3c-9.8,0.1-19-1.6-26.9-6.1  c-5.2-3.2-7.9-8.4-8.5-14.5c0-8.4,5.6-15.6,12.8-19.4c8.8-4.8,18.1-7.9,28.4-8.6c13.8-1.3,27.6-0.2,39.7,4.8c1.6,0.4,2.9,2,4.3,1.1  c-2.6-3-6.2-4.8-10-6c-11.2-2.5-23-4.7-35.2-2.6c-12.1,1-23.5,4.8-32.6,12.2c-6.4,4.9-11.4,13.4-9.7,21.5  c1.1,6.7,6.2,12.2,12.2,15.2c13.4,6.5,30.6,4.9,45.6,3.5c0.5,0,1.1-0.6,1.6-0.1c-9.2,13.7-17.8,28.6-26.9,42.4  c-3.6,6.4-8.2,12.8-13.6,17.9c-10.3-2.6-23.3-5.2-33.6-0.7c-4,1.7-8.2,4.7-8.4,9.4c0.2,1.8,0.5,3.7,2.4,4.8  c9.8,4.1,22.1,1.9,31.3-1.7c2.5-0.8,5.2-3.4,7.4-2.6c17.3,9.6,37.7,19.7,59.2,13.1c0.5-0.2,1.2,0.2,1.4-0.5c5-1.6,9.8-4.3,12.5-8.9  C174.5,167.1,174.5,166.5,173.9,166.7z M167.9,84.8c10.4-14.4,21.1-29.4,36-39.7c3.8-2.4,9-4.4,13.6-2.5c1.1,0.5,1.8,1.4,2.2,2.4  c0.8,6.6-4.4,11.2-7.6,15.8c-12,11.6-28,19.9-44.3,25L167.9,84.8z M81.1,167.7c-6,1.2-13.9,2-17.6-3.2c-1.1-2.9,1.3-4.9,2.8-6.7  c8.5-6.4,20.5-1.2,28.8,2.3c0.1,0.8,1.1,0.1,1.2,0.4C92.6,164.8,86.5,166,81.1,167.7z M418,112.9c-0.5,0-1.1-0.2-1.4,0.1  c-7.1,7.8-13.7,15.1-22.2,21.2c-4.3,2.8-9.6,6.1-15,4.1c-1.1-0.5-1.7-1.7-1.9-2.8c0.8-6.4,4.3-11.3,7.9-16.2  c9-1.1,16.7-6.1,22.7-12.4c2-3.6,6.8-7.6,4.2-12.4c-2.4-2-5.8-0.1-8.4,0.5c-11,5.6-22.2,13.9-28.2,25.2c-0.7,0.6-0.6,1.7-1.6,1.6  v-0.2c-0.4,1.3-1.3,1.8-1.9,3c-5.3,4.3-11,10.3-17.2,13.7c-2,0.6-4.4,2.5-6.7,1.2c-1.4-1.2,0-2.9,0.1-4.1  c5.6-8.4,12.7-13.6,18.6-21.5c2.9-4.8,7-9.6,5.5-15.6c-1.4-1.9-4-2.6-6.4-1.9c-8.4,3.5-15,10-21.2,15.8h-0.8c1-4.6,5.4-8.5,2.9-13.6  c-1-1.6-2.8-1.7-4.3-1.2c-10,4.8-17,14-25.2,21.2c-8.2,6.7-16.3,13.6-26,18.1c-1.9,0.6-4.6,1.8-6-0.2c-0.5-1.3,0.4-2.4,0.8-3.5  c6.4-8.6,13.8-15.7,21.2-23.5c2.3-4.1,7.8-7,6.4-12.2c-3.1-4.3-9.6-1-13.8-0.4l-0.5-0.4c0.2-1.3,1.6-2.2,2-3.4  c1.3-2.3,3.4-4.2,3.2-7.1c-0.4-1.4-2.6-1.3-3.5-0.5c-3.8,2.9-7.9,6.8-6.7,12.5c-4.4,5.3-8.8,9.5-13.6,14.2c-0.1,0.5-1,0-0.8,0.6  c-8.2,8-15.7,17-25.9,22.7c-4.1,2.4-8.8,5.3-13.8,3.5c-1.7-1-2.3-2.3-1.8-4.3c1.3-5.5,4.6-10.2,8.4-14.8c8.3-1.2,16.2-4.7,22.1-10.6  c2.5-3,4.9-5.3,6.1-9.2c0.6-1.7,0-3.6-1.6-4.7c-3.5-1.3-6.7,0.6-9.8,1.7c-11.4,6.2-21.8,13.6-27.7,25.4  c-7.7,7.7-15.6,15.6-26.2,18.6c-2.3,0.1-4.6-0.4-5.8-2.4c-1-4.3,1.6-7.7,3.4-11c7.3-10.6,15.6-21.1,25.9-29c1.2-0.8,2.8-1.9,4.4-1.1  c0.5,0.2,0.2,1.2,0,1.7c-3.5,1.8-6.8,4.8-7.9,8.4c-0.4,1.4-0.1,3,1.1,4c3.1,1.1,5-1.1,7.1-3c2.3-3,4-8,2.6-11.9  c-1.3-1.6-3.7-1.9-5.8-1.3c-13.3,6.4-28.1,15.6-34.7,29.8c-5.9,6-12.5,11.8-20.4,15.4c-1,0.1-2.8,0.6-3.5-0.5  c-0.4-1.1,0.4-2,0.5-3.1c9-13.2,20.2-26,30-38.4c-3-0.2-7-0.7-9.8,0.4c-10.8,13.2-20.8,28-33.8,39c-2.6,1.1-4.9,4.3-8,2.3  c-0.2-0.4-0.5-1.1,0-1.3c0.2-2.2,1.6-4.3,2.8-6.1c8.6-11.6,17.5-22.6,26.5-33.2l0.1-0.6c-2.9,0-6.5-0.4-9.2,0.4l-14.2,17.8  c-3.8,5.9-8.8,10.9-10.3,18.4c-0.2,2.8,0.2,5.4,2.8,6.6c4.1,1.1,7.4-1.1,10.6-3.1c3.1-2,5.6-5.6,8.9-7.1c-0.6,3.5-1.8,7.9,1.8,10.2  c5.8,1.6,10.6-2.5,14.6-5.5c3.2-2.2,6.1-4.9,9.5-7c-0.1,3.6,0.2,7.2,2.5,10.1c1.9,2.2,5,2.9,8.3,2.9c9.6-1.7,16.3-8.2,23.3-13.9  l0.8-0.1c0,4.1,0.4,8.6,4,11c5.5,3.6,12.4,0.5,17.2-2.4c16.1-10.1,27.6-24.6,41.5-38.2l3.2-0.2c3.2-0.5,6.5-2.5,9.8-1.4  c0.4,1.4-1,2.2-1.8,3.4c-7.3,6.6-15,12.4-22,19.7c-2.4,5-7.1,10.8-3.7,16.8c1.4,2,4.3,1.8,6.7,1.8c11.3-3.5,19.9-10.9,28.8-18.5  c5.9-4.8,10.6-10.6,16.7-15.6c2.5-2,5.2-5.3,9.1-5.6c0.5,0,0.7,0.6,0.8,1c-1.7,3.4-4.1,7.2-6.2,10.2c-8.2,9.6-15,18.8-23.4,28.3  c0,0.7-1.3,1.3-0.2,2l7.4,0.1l1.1-0.6c3.5-5.5,8.5-9.8,12.7-15.1c8-10.3,17.9-20.5,29.8-27c1.2-0.2,2.6-0.7,3.5,0.5  c0.5,0.8,0,1.9-0.4,2.8c-6.4,9.2-16.9,16.2-22.6,26c-1.7,3.7-3.6,9.2-0.5,12.8c1.4,1.2,3.4,1.7,5.4,1.3c8.8-2.9,14.6-9.8,21.8-14.8  c-0.2,3.4,0.2,7.4,2.2,10.2c1.6,2.3,4.4,3.7,7.6,3.4c14.5-2.4,23.6-13.8,33.2-23.8C416.3,115.1,419.1,114.7,418,112.9z M404.9,97.7  c1.3-1.3,3.6-2.8,5.4-1.3c-1,7.6-7.8,12.5-13.1,16.7c-2.8,1.8-5.8,3.6-9.1,3.5l-0.2-0.4C392.7,109.4,398.7,103.1,404.9,97.7z   M268.4,98.3c1.1-1.1,4.6-1.8,4.1,0.7c-1.9,5.8-6.7,9.8-11.3,13.7c-3.4,2.2-7,4.4-11.2,5l-0.5-0.6  C254.2,109.9,261.7,103.9,268.4,98.3z M74.9,100.6l11.4,2.2c4.8,0.6,9-0.8,13.3-1.8c1-0.5,2.5-0.6,3.1-1.6c0-0.5-0.6-0.4-0.8-0.6  c-6.2,2.2-12.5,0-18.6-1.1c-0.7-0.1-1.9-0.1-1.9-1.1c1.7-1.3,3.8-1.8,5.6-2.8c0.1-0.5-0.1-0.7-0.4-1c-2.9,0.5-5.3,2.3-7.8,3.5  l-6.7-1.8c-5-1.2-10.4-1.9-15.7-2.3c-2.4-3.6-6.7-4.7-11.2-4.7c-7.3,0.6-13.6,3.8-17.6,9.7c0,0.2,0.1,0.7,0.5,0.6  c5.5-6,13.2-11.6,22.3-8.6c1.6,1,3.8,1.6,4,3.5c-8.8,1.6-17.6,5.9-21.1,14.3c-0.7,2.4-0.6,5.5,1.1,7.3c2,1.7,4.8,2.2,7.6,1.7  c7.3-1.9,13.6-7.2,15.6-14.6c0.6-1.4,0-3.6,1-4.8L71,99.5l1.4,0.7c-16.1,12.7-25.8,30.8-41.3,43.6c-5.2,3.6-12.7,4.9-18.8,2.3  c-4.3-1.7-6.7-6.1-6.8-10.6c0.4-8.3,6.1-14.5,13.1-18c4.6-1.9,11-2.5,15,1c2.6,2.3,3.1,5.9,2.5,9.1c-1.2,5.5-5.6,9.6-10.9,11.2  c0.1,0.2,0.4,0.8,1,0.7c5.8-1.6,10-6.7,11-12.1c0.8-3.4-0.2-6.6-2.3-8.9c-2.9-2.8-7.2-4-11.4-3.1c-9,1.2-16.1,7.9-18.7,16.3  c-1.1,4.6,0.4,9,3,12.1c6.5,6.8,18.2,4.8,26.3,2.2c13.2-4.6,20-15.6,26.4-27.2C64.7,112.3,68.2,104.5,74.9,100.6z M47.5,112.7  c-3.1,1.6-6.8,3.5-10.6,1.9c-1.3-0.6-2.2-1.9-2.6-3c-1-4.7,2.9-9,6.1-11.6c4.4-2.9,10.1-4.4,15.7-3.5l0.4,0.4  C56.6,103.6,52.6,109,47.5,112.7z M75.9,122.6c0.4-0.1,0.7,0.1,0.7,0.5c-2.9,5.4-8.6,7.9-10.8,14c-0.2,1.3,0.2,2.8,1.2,3.6  c4.6,0.7,7.3-2.9,10.7-5.3c0.2,1.6,0.4,3.4,1.7,4.4c1,0.6,2,1.2,3.2,0.8c5.8-1.8,10.4-6.7,14.2-11.4l-0.2-0.2  c-3.4,3.2-6.1,6.5-10,9.2c-1.9,1-4.3,2.6-6.4,1.1c-0.6-2,0.7-4.1,1.8-6c1.1-2.6,4.8-1.7,6.7-3.4c2.6-1.9,6-4.4,5.9-8.2  c-0.4-0.6-1.2-1.1-2.2-0.8c-6,2.4-11.3,6.7-14.3,12.5c-3.1,3-5.8,5.9-10.1,6.5c-0.5-0.2-0.5-0.7-0.5-1.2c2.5-5,8.3-7.6,10.1-12.8  c0.4-1.1,0.8-3.1-0.5-4.1c-3.2-0.4-5.5,2.2-8.2,3.5c4.3-6.1,8.6-11.4,13-17.6c-1.3,0.1-2.9-0.2-4,0.4c-7.8,10.6-16.6,21.7-24.5,32.2  l-0.2,1h3.4c2.6-3.2,4.8-6.5,7.8-9.7C67.6,128.1,71.3,124,75.9,122.6z M92.7,122c0.6-0.2,0.7,0.5,0.7,0.6c-1.6,4.1-4.9,7.2-9.2,8.2  C86.8,127,89.1,124.5,92.7,122z"/>
                            </svg>